<?xml version="1.0" encoding="UTF-8" standalone="no"?>
<!-- Generator: Adobe Illustrator 16.0.0, SVG Export Plug-In . SVG Version: 6.00 Build 0)  -->

<svg
   xmlns:dc="http://purl.org/dc/elements/1.1/"
   xmlns:cc="http://creativecommons.org/ns#"
   xmlns:rdf="http://www.w3.org/1999/02/22-rdf-syntax-ns#"
   xmlns:svg="http://www.w3.org/2000/svg"
   xmlns="http://www.w3.org/2000/svg"
   xmlns:sodipodi="http://sodipodi.sourceforge.net/DTD/sodipodi-0.dtd"
   xmlns:inkscape="http://www.inkscape.org/namespaces/inkscape"
   version="1.1"
   id="Layer_1"
   x="0px"
   y="0px"
   width="787.03699"
   height="1178.296"
   viewBox="0 0 787.03699 1178.296"
   enable-background="new 0 0 3840 2160"
   xml:space="preserve"
   inkscape:version="0.91 r13725"
   sodipodi:docname="ens.svg"><metadata
     id="metadata57"><rdf:RDF><cc:Work
         rdf:about=""><dc:format>image/svg+xml</dc:format><dc:type
           rdf:resource="http://purl.org/dc/dcmitype/StillImage" /><dc:title></dc:title></cc:Work></rdf:RDF></metadata><defs
     id="defs55" /><sodipodi:namedview
     pagecolor="#ffffff"
     bordercolor="#666666"
     borderopacity="1"
     objecttolerance="10"
     gridtolerance="10"
     guidetolerance="10"
     inkscape:pageopacity="0"
     inkscape:pageshadow="2"
     inkscape:window-width="699"
     inkscape:window-height="480"
     id="namedview53"
     showgrid="false"
     fit-margin-top="0"
     fit-margin-left="0"
     fit-margin-right="0"
     fit-margin-bottom="0"
     inkscape:zoom="0.080729167"
     inkscape:cx="393.518"
     inkscape:cy="589.148"
     inkscape:window-x="0"
     inkscape:window-y="0"
     inkscape:window-maximized="0"
     inkscape:current-layer="Layer_1" /><polygon
     points="1920.002,490.852 2257.302,685.594 2257.302,1075.076 1920.002,1269.816 1582.698,1075.076 1582.698,685.594 "
     id="polygon3"
     style="fill:#1dd155"
     transform="translate(-1526.482,-490.852)" /><g
     id="g5"
     transform="translate(-1526.482,-490.852)"><g
       id="g7"><path
         d="m 1561.123,1500.085 c 5.019,0 9.682,1.043 13.986,3.121 4.304,2.085 7.993,4.839 11.08,8.282 3.083,3.443 5.487,7.426 7.207,11.941 1.724,4.52 2.583,9.222 2.583,14.092 0,0.86 -0.323,1.586 -0.969,2.153 -0.646,0.575 -1.398,0.861 -2.259,0.861 l -60.029,0 c 0.429,3.734 1.398,7.317 2.904,10.759 1.507,3.443 3.477,6.452 5.917,9.038 2.439,2.579 5.304,4.66 8.607,6.235 3.295,1.581 6.955,2.367 10.972,2.367 10.614,0 18.86,-4.229 24.743,-12.691 0.573,-1.007 1.432,-1.506 2.581,-1.506 2.007,0 3.013,1.005 3.013,3.009 0,0.146 -0.145,0.649 -0.429,1.507 -3.014,5.311 -7.245,9.257 -12.696,11.834 -5.453,2.582 -11.187,3.872 -17.211,3.872 -5.023,0 -9.648,-1.042 -13.877,-3.12 -4.232,-2.076 -7.891,-4.839 -10.974,-8.282 -3.086,-3.439 -5.486,-7.42 -7.207,-11.939 -1.724,-4.518 -2.583,-9.218 -2.583,-14.097 0,-4.87 0.86,-9.572 2.583,-14.092 1.721,-4.516 4.121,-8.498 7.207,-11.941 3.083,-3.443 6.741,-6.197 10.974,-8.282 4.228,-2.078 8.854,-3.121 13.877,-3.121 m 28.399,34.427 c -0.288,-3.727 -1.184,-7.312 -2.689,-10.76 -1.506,-3.441 -3.516,-6.453 -6.025,-9.035 -2.51,-2.582 -5.452,-4.656 -8.821,-6.241 -3.371,-1.573 -6.991,-2.367 -10.865,-2.367 -4.018,0 -7.677,0.794 -10.972,2.367 -3.303,1.585 -6.168,3.659 -8.607,6.241 -2.44,2.582 -4.41,5.594 -5.917,9.035 -1.506,3.447 -2.475,7.033 -2.904,10.76 l 56.8,0 z"
         id="path9"
         inkscape:connector-curvature="0"
         style="fill:#939598" /><path
         d="m 1668.916,1501.589 c 0.86,0 1.576,0.326 2.151,0.97 0.571,0.647 0.861,1.329 0.861,2.044 0,2.013 -1.005,3.013 -3.012,3.013 l -16.138,0 0,63.258 c 0,0.72 -0.288,1.396 -0.861,2.041 -0.573,0.646 -1.292,0.972 -2.151,0.972 -0.861,0 -1.58,-0.325 -2.152,-0.972 -0.574,-0.646 -0.859,-1.321 -0.859,-2.041 l 0,-63.258 -15.492,0 c -2.011,0 -3.013,-1 -3.013,-3.013 0,-0.715 0.286,-1.396 0.863,-2.044 0.57,-0.644 1.29,-0.97 2.15,-0.97 l 15.492,0 0,-23.236 c 0,-2.004 1.001,-3.008 3.011,-3.008 2.005,0 3.012,1.004 3.012,3.008 l 0,23.236 16.138,0 z"
         id="path11"
         inkscape:connector-curvature="0"
         style="fill:#939598" /><path
         d="m 1740.775,1500.304 c 4.444,0 8.39,0.896 11.833,2.688 3.441,1.794 6.347,4.163 8.715,7.1 2.366,2.944 4.158,6.348 5.376,10.22 1.221,3.873 1.829,7.821 1.829,11.832 l 0,38.298 c 0,0.862 -0.32,1.583 -0.966,2.154 -0.646,0.571 -1.33,0.858 -2.044,0.858 -2.011,0 -3.016,-1.004 -3.016,-3.013 l 0,-38.298 c 0,-3.15 -0.464,-6.31 -1.396,-9.463 -0.934,-3.154 -2.295,-5.918 -4.088,-8.285 -1.794,-2.367 -4.052,-4.304 -6.774,-5.811 -2.729,-1.506 -5.887,-2.259 -9.469,-2.259 -4.303,0 -8.068,0.829 -11.296,2.475 -3.227,1.652 -5.917,3.839 -8.068,6.562 -2.153,2.724 -3.732,5.883 -4.733,9.468 -1.004,3.586 -1.506,7.312 -1.506,11.187 0,1.006 0.072,2.013 0.214,3.013 0.141,1.006 0.216,1.866 0.216,2.583 l 0,28.828 c 0,2.009 -1.005,3.013 -3.012,3.013 -2.013,0 -3.013,-1.004 -3.013,-3.013 l 0,-125.864 c 0,-0.715 0.286,-1.399 0.86,-2.045 0.573,-0.646 1.292,-0.968 2.153,-0.968 0.861,0 1.577,0.321 2.152,0.968 0.569,0.646 0.86,1.33 0.86,2.045 l 0,71.217 c 2.582,-4.588 6.056,-8.315 10.435,-11.19 4.374,-2.867 9.286,-4.3 14.738,-4.3"
         id="path13"
         inkscape:connector-curvature="0"
         style="fill:#939598" /><path
         d="m 1844.049,1500.085 c 5.019,0 9.679,1.043 13.985,3.121 4.304,2.085 7.994,4.839 11.079,8.282 3.084,3.443 5.488,7.426 7.21,11.941 1.722,4.52 2.581,9.222 2.581,14.092 0,0.86 -0.322,1.586 -0.967,2.153 -0.647,0.575 -1.4,0.861 -2.261,0.861 l -60.028,0 c 0.43,3.734 1.398,7.317 2.906,10.759 1.505,3.443 3.474,6.452 5.914,9.038 2.439,2.579 5.308,4.66 8.607,6.235 3.296,1.581 6.957,2.367 10.975,2.367 10.612,0 18.859,-4.229 24.741,-12.691 0.573,-1.007 1.432,-1.506 2.581,-1.506 2.008,0 3.013,1.005 3.013,3.009 0,0.146 -0.144,0.649 -0.431,1.507 -3.011,5.311 -7.245,9.257 -12.693,11.834 -5.453,2.582 -11.188,3.872 -17.211,3.872 -5.026,0 -9.65,-1.042 -13.879,-3.12 -4.233,-2.076 -7.89,-4.839 -10.974,-8.282 -3.086,-3.439 -5.486,-7.42 -7.208,-11.939 -1.722,-4.518 -2.581,-9.218 -2.581,-14.097 0,-4.87 0.859,-9.572 2.581,-14.092 1.722,-4.516 4.121,-8.498 7.208,-11.941 3.083,-3.443 6.741,-6.197 10.974,-8.282 4.228,-2.078 8.852,-3.121 13.878,-3.121 m 28.4,34.427 c -0.292,-3.727 -1.185,-7.312 -2.691,-10.76 -1.507,-3.441 -3.515,-6.453 -6.021,-9.035 -2.513,-2.582 -5.453,-4.656 -8.825,-6.241 -3.37,-1.573 -6.99,-2.367 -10.862,-2.367 -4.018,0 -7.679,0.794 -10.975,2.367 -3.299,1.585 -6.168,3.659 -8.607,6.241 -2.439,2.582 -4.409,5.594 -5.914,9.035 -1.508,3.447 -2.477,7.033 -2.906,10.76 l 56.801,0 z"
         id="path15"
         inkscape:connector-curvature="0"
         style="fill:#939598" /><path
         d="m 1950.982,1501.589 c 0.714,0 1.431,0.257 2.15,0.757 0.714,0.504 1.075,1.186 1.075,2.043 0,2.011 -0.935,3.089 -2.797,3.227 -4.448,0.722 -8.283,2.083 -11.511,4.089 -3.229,2.009 -5.883,4.518 -7.961,7.532 -2.085,3.009 -3.626,6.422 -4.628,10.22 -1.006,3.799 -1.504,7.781 -1.504,11.94 l 0,28.831 c 0,2.007 -1.008,3.011 -3.013,3.011 -2.012,0 -3.012,-1.004 -3.012,-3.011 l 0,-65.625 c 0,-2.004 1,-3.014 3.012,-3.014 2.005,0 3.013,1.01 3.013,3.014 l 0,13.343 c 1.291,-2.152 2.83,-4.196 4.626,-6.133 1.79,-1.937 3.767,-3.658 5.917,-5.163 2.152,-1.509 4.48,-2.724 6.993,-3.658 2.509,-0.93 5.057,-1.403 7.64,-1.403"
         id="path17"
         inkscape:connector-curvature="0"
         style="fill:#939598" /><path
         d="m 2021.121,1500.085 c 5.02,0 9.682,1.043 13.985,3.121 4.302,2.085 7.994,4.839 11.079,8.282 3.086,3.443 5.487,7.426 7.21,11.941 1.719,4.52 2.58,9.222 2.58,14.092 0,0.86 -0.321,1.586 -0.967,2.153 -0.648,0.575 -1.402,0.861 -2.264,0.861 l -60.025,0 c 0.432,3.734 1.4,7.317 2.906,10.759 1.504,3.443 3.476,6.452 5.917,9.038 2.435,2.579 5.302,4.66 8.603,6.235 3.3,1.581 6.96,2.367 10.976,2.367 10.614,0 18.858,-4.229 24.741,-12.691 0.572,-1.007 1.434,-1.506 2.584,-1.506 2.008,0 3.012,1.005 3.012,3.009 0,0.146 -0.143,0.649 -0.431,1.507 -3.013,5.311 -7.243,9.257 -12.695,11.834 -5.45,2.582 -11.187,3.872 -17.211,3.872 -5.022,0 -9.647,-1.042 -13.878,-3.12 -4.233,-2.076 -7.889,-4.839 -10.972,-8.282 -3.088,-3.439 -5.487,-7.42 -7.21,-11.939 -1.721,-4.518 -2.58,-9.218 -2.58,-14.097 0,-4.87 0.859,-9.572 2.58,-14.092 1.723,-4.516 4.122,-8.498 7.21,-11.941 3.083,-3.443 6.738,-6.197 10.972,-8.282 4.231,-2.078 8.856,-3.121 13.878,-3.121 m 28.401,34.427 c -0.291,-3.727 -1.186,-7.312 -2.691,-10.76 -1.505,-3.441 -3.516,-6.453 -6.023,-9.035 -2.512,-2.582 -5.452,-4.656 -8.82,-6.241 -3.372,-1.573 -6.992,-2.367 -10.866,-2.367 -4.016,0 -7.676,0.794 -10.976,2.367 -3.301,1.585 -6.168,3.659 -8.603,6.241 -2.441,2.582 -4.413,5.594 -5.917,9.035 -1.506,3.447 -2.475,7.033 -2.906,10.76 l 56.802,0 z"
         id="path19"
         inkscape:connector-curvature="0"
         style="fill:#939598" /><path
         d="m 2152.581,1502.02 c 0.715,0 1.399,0.326 2.047,0.972 0.642,0.644 0.966,1.327 0.966,2.041 l 0,65.841 c 0,0.866 -0.324,1.576 -0.966,2.151 -0.647,0.568 -1.332,0.861 -2.047,0.861 -2.01,0 -3.015,-1.004 -3.015,-3.013 l 0,-12.477 c -2.438,5.02 -5.806,9.107 -10.109,12.261 -4.304,3.158 -9.249,4.735 -14.847,4.735 -4.447,0 -8.391,-0.897 -11.834,-2.693 -3.439,-1.788 -6.346,-4.156 -8.713,-7.097 -2.365,-2.94 -4.16,-6.312 -5.38,-10.114 -1.218,-3.798 -1.829,-7.778 -1.829,-11.939 l 0,-38.517 c 0,-0.714 0.285,-1.397 0.861,-2.041 0.57,-0.646 1.291,-0.972 2.151,-0.972 0.861,0 1.576,0.326 2.151,0.972 0.571,0.644 0.861,1.327 0.861,2.041 l 0,38.517 c 0,3.304 0.463,6.492 1.401,9.578 0.931,3.083 2.29,5.809 4.086,8.172 1.791,2.367 4.05,4.304 6.777,5.811 2.722,1.51 5.879,2.257 9.466,2.257 5.019,0 9.145,-1.108 12.373,-3.329 3.227,-2.229 5.771,-5.165 7.641,-8.823 1.859,-3.662 3.15,-7.887 3.871,-12.695 0.713,-4.808 1.071,-9.791 1.071,-14.954 l 0,-24.532 c 0,-0.714 0.289,-1.397 0.862,-2.041 0.576,-0.647 1.294,-0.973 2.155,-0.973"
         id="path21"
         inkscape:connector-curvature="0"
         style="fill:#939598" /><path
         d="m 2285.761,1500.304 c 4.449,0 8.393,0.896 11.836,2.688 3.442,1.794 6.346,4.126 8.715,6.991 2.365,2.873 4.158,6.241 5.376,10.114 1.218,3.87 1.831,7.82 1.831,11.833 l 0,38.511 c 0,0.862 -0.322,1.583 -0.968,2.154 -0.647,0.571 -1.327,0.858 -2.045,0.858 -2.013,0 -3.013,-1.004 -3.013,-3.013 l 0,-38.511 c 0,-3.152 -0.467,-6.271 -1.398,-9.357 -0.935,-3.088 -2.297,-5.845 -4.09,-8.286 -1.793,-2.439 -4.048,-4.372 -6.777,-5.811 -2.727,-1.429 -5.881,-2.15 -9.467,-2.15 -4.59,0 -8.462,1.076 -11.614,3.229 -3.16,2.15 -5.702,4.913 -7.639,8.282 -1.938,3.373 -3.372,7.103 -4.304,11.188 -0.936,4.089 -1.399,7.999 -1.399,11.728 l 0,29.689 c 0,0.862 -0.324,1.583 -0.97,2.154 -0.646,0.571 -1.326,0.858 -2.044,0.858 -2.009,0 -3.01,-1.004 -3.01,-3.013 l 0,-38.511 c 0,-3.152 -0.472,-6.271 -1.399,-9.357 -0.937,-3.088 -2.299,-5.845 -4.089,-8.286 -1.794,-2.439 -4.054,-4.372 -6.774,-5.811 -2.73,-1.429 -5.887,-2.15 -9.471,-2.15 -4.447,0 -8.252,0.792 -11.403,2.366 -3.156,1.582 -5.773,3.767 -7.853,6.564 -2.08,2.797 -3.586,6.133 -4.516,10.002 -0.936,3.874 -1.4,8.039 -1.4,12.48 l 0,3.445 0,0.211 0,29.046 c 0,2.009 -1.007,3.013 -3.011,3.013 -2.013,0 -3.013,-1.004 -3.013,-3.013 l 0,-65.838 c 0,-2.004 1,-3.014 3.013,-3.014 2.004,0 3.011,1.01 3.011,3.014 l 0,10.976 c 2.582,-4.589 6.057,-8.285 10.436,-11.081 4.373,-2.798 9.282,-4.193 14.736,-4.193 6.167,0 11.475,1.758 15.923,5.268 4.444,3.52 7.671,8.146 9.681,13.88 2.44,-5.596 5.952,-10.184 10.546,-13.773 4.586,-3.58 10.112,-5.374 16.563,-5.374"
         id="path23"
         inkscape:connector-curvature="0"
         style="fill:#939598" /></g></g><g
     id="g25"
     transform="translate(-1526.482,-490.852)"><path
       d="m 1717.909,1634.745 c 2.029,0 3.834,0.411 5.407,1.227 1.572,0.822 2.9,1.904 3.98,3.244 1.082,1.346 1.899,2.9 2.458,4.671 0.555,1.768 0.835,3.574 0.835,5.406 l 0,17.496 c 0,0.395 -0.147,0.722 -0.444,0.982 -0.294,0.26 -0.605,0.393 -0.932,0.393 -0.917,0 -1.377,-0.456 -1.377,-1.375 l 0,-17.496 c 0,-1.507 -0.214,-2.967 -0.639,-4.377 -0.426,-1.405 -1.049,-2.666 -1.868,-3.783 -0.819,-1.112 -1.853,-1.996 -3.094,-2.654 -1.248,-0.653 -2.688,-0.982 -4.326,-0.982 -2.098,0 -3.868,0.427 -5.309,1.28 -1.44,0.849 -2.603,1.998 -3.488,3.439 -0.884,1.439 -1.542,3.112 -1.966,5.012 -0.428,1.9 -0.639,3.868 -0.639,5.897 l 0,13.762 c 0,0.917 -0.459,1.377 -1.377,1.377 -0.917,0 -1.375,-0.46 -1.375,-1.377 l 0,-30.076 c 0,-0.917 0.458,-1.378 1.375,-1.378 0.918,0 1.377,0.461 1.377,1.378 l 0,4.814 c 1.243,-2.097 2.833,-3.77 4.767,-5.014 1.932,-1.244 4.143,-1.866 6.635,-1.866 z"
       id="path27"
       inkscape:connector-curvature="0"
       style="fill:#939598" /><path
       d="m 1772.856,1635.433 c 0.392,0 0.719,0.148 0.984,0.441 0.259,0.296 0.392,0.607 0.392,0.937 l 0,29.979 c 0,0.919 -0.458,1.375 -1.375,1.375 -0.918,0 -1.377,-0.456 -1.377,-1.375 l 0,-6.291 c -1.376,2.49 -3.278,4.539 -5.702,6.141 -2.423,1.606 -5.11,2.411 -8.06,2.411 -2.296,0 -4.408,-0.476 -6.339,-1.427 -1.933,-0.947 -3.604,-2.212 -5.013,-3.783 -1.409,-1.573 -2.508,-3.389 -3.293,-5.458 -0.788,-2.062 -1.179,-4.206 -1.179,-6.437 0,-2.225 0.392,-4.374 1.179,-6.436 0.785,-2.069 1.884,-3.885 3.293,-5.457 1.409,-1.574 3.08,-2.835 5.013,-3.786 1.931,-0.948 4.043,-1.424 6.339,-1.424 2.95,0 5.636,0.805 8.06,2.407 2.424,1.607 4.326,3.655 5.702,6.146 l 0,-6.585 c 0,-0.329 0.132,-0.641 0.395,-0.937 0.259,-0.293 0.588,-0.441 0.981,-0.441 z m -15.138,30.864 c 1.966,0 3.751,-0.408 5.357,-1.228 1.606,-0.821 2.982,-1.883 4.13,-3.197 1.146,-1.308 2.028,-2.832 2.654,-4.57 0.621,-1.732 0.933,-3.521 0.933,-5.356 0,-1.834 -0.312,-3.618 -0.933,-5.356 -0.625,-1.736 -1.508,-3.259 -2.654,-4.57 -1.148,-1.312 -2.524,-2.374 -4.13,-3.195 -1.606,-0.815 -3.391,-1.229 -5.357,-1.229 -1.901,0 -3.654,0.414 -5.258,1.229 -1.606,0.821 -2.982,1.883 -4.13,3.195 -1.146,1.312 -2.049,2.834 -2.701,4.57 -0.657,1.738 -0.984,3.522 -0.984,5.356 0,1.836 0.327,3.624 0.984,5.356 0.652,1.738 1.555,3.263 2.701,4.57 1.147,1.314 2.524,2.376 4.13,3.197 1.604,0.82 3.356,1.228 5.258,1.228 z"
       id="path29"
       inkscape:connector-curvature="0"
       style="fill:#939598" /><path
       d="m 1826.326,1634.94 c 2.03,0 3.832,0.409 5.406,1.229 1.572,0.819 2.9,1.885 3.982,3.194 1.08,1.312 1.9,2.852 2.455,4.618 0.558,1.772 0.838,3.572 0.838,5.408 l 0,17.594 c 0,0.393 -0.149,0.724 -0.445,0.984 -0.293,0.262 -0.607,0.391 -0.932,0.391 -0.918,0 -1.375,-0.458 -1.375,-1.375 l 0,-17.594 c 0,-1.441 -0.214,-2.865 -0.639,-4.275 -0.429,-1.409 -1.051,-2.671 -1.869,-3.785 -0.82,-1.116 -1.851,-1.998 -3.095,-2.655 -1.246,-0.652 -2.689,-0.983 -4.326,-0.983 -2.095,0 -3.867,0.492 -5.307,1.476 -1.442,0.983 -2.605,2.244 -3.49,3.781 -0.886,1.543 -1.539,3.246 -1.965,5.114 -0.429,1.865 -0.638,3.657 -0.638,5.358 l 0,13.563 c 0,0.393 -0.15,0.724 -0.442,0.984 -0.296,0.262 -0.608,0.391 -0.936,0.391 -0.917,0 -1.375,-0.458 -1.375,-1.375 l 0,-17.594 c 0,-1.441 -0.213,-2.865 -0.639,-4.275 -0.427,-1.409 -1.05,-2.671 -1.867,-3.785 -0.822,-1.116 -1.853,-1.998 -3.098,-2.655 -1.245,-0.652 -2.687,-0.983 -4.324,-0.983 -2.031,0 -3.769,0.363 -5.21,1.085 -1.441,0.718 -2.638,1.718 -3.588,2.997 -0.951,1.278 -1.639,2.799 -2.064,4.571 -0.427,1.769 -0.639,3.669 -0.639,5.698 l 0,1.573 0,0.098 0,13.271 c 0,0.917 -0.458,1.375 -1.376,1.375 -0.918,0 -1.375,-0.458 -1.375,-1.375 l 0,-30.076 c 0,-0.92 0.458,-1.38 1.375,-1.38 0.917,0 1.376,0.46 1.376,1.38 l 0,5.012 c 1.18,-2.097 2.768,-3.782 4.768,-5.064 1.999,-1.274 4.241,-1.915 6.733,-1.915 2.818,0 5.241,0.804 7.275,2.407 2.029,1.604 3.503,3.72 4.422,6.339 1.112,-2.554 2.719,-4.649 4.815,-6.286 2.097,-1.637 4.621,-2.461 7.569,-2.461 z"
       id="path31"
       inkscape:connector-curvature="0"
       style="fill:#939598" /><path
       d="m 1866.135,1634.843 c 2.294,0 4.426,0.476 6.389,1.424 1.966,0.951 3.652,2.212 5.063,3.786 1.408,1.572 2.505,3.388 3.293,5.457 0.785,2.062 1.18,4.211 1.18,6.436 0,0.393 -0.15,0.72 -0.443,0.982 -0.295,0.264 -0.639,0.396 -1.033,0.396 l -27.423,0 c 0.195,1.702 0.638,3.339 1.326,4.916 0.688,1.571 1.588,2.945 2.702,4.127 1.114,1.179 2.425,2.128 3.934,2.852 1.507,0.72 3.177,1.079 5.012,1.079 4.85,0 8.616,-1.933 11.303,-5.799 0.261,-0.458 0.657,-0.688 1.182,-0.688 0.916,0 1.375,0.457 1.375,1.374 0,0.067 -0.067,0.297 -0.195,0.688 -1.378,2.427 -3.311,4.227 -5.801,5.407 -2.49,1.18 -5.11,1.771 -7.863,1.771 -2.295,0 -4.408,-0.476 -6.34,-1.427 -1.933,-0.947 -3.604,-2.212 -5.011,-3.783 -1.413,-1.573 -2.509,-3.389 -3.294,-5.458 -0.788,-2.062 -1.18,-4.206 -1.18,-6.437 0,-2.225 0.393,-4.374 1.18,-6.436 0.785,-2.069 1.881,-3.885 3.294,-5.457 1.408,-1.574 3.078,-2.835 5.011,-3.786 1.932,-0.949 4.044,-1.424 6.339,-1.424 z m 12.975,15.726 c -0.131,-1.702 -0.54,-3.342 -1.228,-4.915 -0.687,-1.572 -1.607,-2.95 -2.752,-4.127 -1.147,-1.18 -2.492,-2.129 -4.029,-2.853 -1.542,-0.722 -3.196,-1.081 -4.965,-1.081 -1.835,0 -3.505,0.359 -5.012,1.081 -1.509,0.724 -2.82,1.673 -3.934,2.853 -1.114,1.177 -2.014,2.555 -2.702,4.127 -0.688,1.573 -1.13,3.213 -1.326,4.915 l 25.948,0 z"
       id="path33"
       inkscape:connector-curvature="0"
       style="fill:#939598" /><path
       d="m 1916.166,1643.298 c 0,1.439 0.589,2.522 1.769,3.242 1.179,0.724 2.64,1.313 4.375,1.769 1.734,0.461 3.638,0.87 5.701,1.229 2.064,0.358 3.965,0.881 5.701,1.573 1.736,0.686 3.195,1.639 4.375,2.849 1.178,1.214 1.768,2.87 1.768,4.964 0,1.772 -0.409,3.296 -1.228,4.572 -0.821,1.276 -1.868,2.326 -3.146,3.143 -1.277,0.823 -2.704,1.443 -4.275,1.87 -1.572,0.427 -3.115,0.639 -4.621,0.639 -1.641,0 -3.261,-0.179 -4.864,-0.542 -1.607,-0.36 -3.046,-0.93 -4.327,-1.719 -1.278,-0.788 -2.327,-1.817 -3.144,-3.098 -0.82,-1.276 -1.23,-2.863 -1.23,-4.768 0,-0.652 0.084,-1.193 0.248,-1.622 0.163,-0.423 0.638,-0.636 1.423,-0.636 0.394,0 0.673,0.179 0.837,0.538 0.163,0.362 0.245,0.706 0.245,1.035 0,1.638 0.293,2.981 0.885,4.029 0.59,1.05 1.392,1.868 2.41,2.457 1.011,0.588 2.177,0.999 3.488,1.229 1.311,0.23 2.653,0.343 4.029,0.343 1.114,0 2.295,-0.147 3.541,-0.44 1.244,-0.297 2.372,-0.736 3.39,-1.329 1.015,-0.59 1.868,-1.358 2.556,-2.308 0.688,-0.953 1.031,-2.08 1.031,-3.394 0,-1.636 -0.59,-2.898 -1.767,-3.783 -1.183,-0.884 -2.641,-1.588 -4.376,-2.113 -1.736,-0.523 -3.634,-0.948 -5.701,-1.275 -2.066,-0.331 -3.966,-0.805 -5.702,-1.429 -1.738,-0.622 -3.195,-1.456 -4.375,-2.507 -1.179,-1.045 -1.769,-2.521 -1.769,-4.421 0,-1.635 0.409,-3.001 1.23,-4.08 0.819,-1.083 1.85,-1.932 3.095,-2.558 1.246,-0.62 2.605,-1.047 4.079,-1.274 1.475,-0.231 2.867,-0.348 4.179,-0.348 1.572,0 3.13,0.169 4.67,0.492 1.538,0.329 2.932,0.854 4.178,1.571 1.244,0.724 2.259,1.707 3.046,2.951 0.787,1.246 1.181,2.785 1.181,4.621 0,0.391 -0.165,0.703 -0.492,0.932 -0.33,0.229 -0.656,0.345 -0.981,0.345 -0.461,0 -0.789,-0.162 -0.983,-0.491 -0.198,-0.328 -0.298,-0.655 -0.298,-0.984 -0.262,-1.439 -0.735,-2.605 -1.424,-3.488 -0.688,-0.886 -1.506,-1.556 -2.457,-2.015 -0.951,-0.459 -1.983,-0.769 -3.096,-0.932 -1.117,-0.164 -2.229,-0.247 -3.343,-0.247 -0.92,0 -1.935,0.062 -3.046,0.195 -1.117,0.134 -2.181,0.393 -3.195,0.786 -1.017,0.396 -1.869,0.936 -2.556,1.622 -0.687,0.689 -1.034,1.623 -1.034,2.805 z"
       id="path35"
       inkscape:connector-curvature="0"
       style="fill:#939598" /><path
       d="m 1965.513,1634.843 c 2.29,0 4.42,0.476 6.387,1.424 1.965,0.951 3.652,2.212 5.062,3.786 1.406,1.572 2.508,3.388 3.29,5.457 0.79,2.062 1.183,4.211 1.183,6.436 0,0.393 -0.148,0.72 -0.444,0.982 -0.293,0.264 -0.638,0.396 -1.029,0.396 l -27.425,0 c 0.194,1.702 0.639,3.339 1.326,4.916 0.688,1.571 1.587,2.945 2.703,4.127 1.113,1.179 2.423,2.128 3.934,2.852 1.506,0.72 3.175,1.079 5.014,1.079 4.846,0 8.613,-1.933 11.3,-5.799 0.261,-0.458 0.656,-0.688 1.182,-0.688 0.916,0 1.376,0.457 1.376,1.374 0,0.067 -0.066,0.297 -0.197,0.688 -1.375,2.427 -3.31,4.227 -5.8,5.407 -2.49,1.18 -5.11,1.771 -7.86,1.771 -2.296,0 -4.41,-0.476 -6.344,-1.427 -1.934,-0.947 -3.604,-2.212 -5.012,-3.783 -1.412,-1.573 -2.506,-3.389 -3.293,-5.458 -0.785,-2.062 -1.18,-4.206 -1.18,-6.437 0,-2.225 0.395,-4.374 1.18,-6.436 0.787,-2.069 1.881,-3.885 3.293,-5.457 1.408,-1.574 3.078,-2.835 5.012,-3.786 1.932,-0.949 4.046,-1.424 6.342,-1.424 z m 12.973,15.726 c -0.133,-1.702 -0.542,-3.342 -1.229,-4.915 -0.69,-1.572 -1.607,-2.95 -2.752,-4.127 -1.148,-1.18 -2.49,-2.129 -4.029,-2.853 -1.541,-0.722 -3.197,-1.081 -4.963,-1.081 -1.839,0 -3.508,0.359 -5.014,1.081 -1.511,0.724 -2.82,1.673 -3.934,2.853 -1.116,1.177 -2.016,2.555 -2.703,4.127 -0.688,1.573 -1.132,3.213 -1.326,4.915 l 25.95,0 z"
       id="path37"
       inkscape:connector-curvature="0"
       style="fill:#939598" /><path
       d="m 2006.991,1635.528 c 0.326,0 0.653,0.119 0.981,0.346 0.329,0.231 0.492,0.542 0.492,0.937 0,0.917 -0.428,1.409 -1.278,1.474 -2.032,0.326 -3.783,0.95 -5.258,1.866 -1.475,0.917 -2.689,2.065 -3.639,3.438 -0.951,1.378 -1.653,2.937 -2.113,4.673 -0.459,1.736 -0.686,3.554 -0.686,5.452 l 0,13.173 c 0,0.917 -0.461,1.377 -1.377,1.377 -0.919,0 -1.377,-0.46 -1.377,-1.377 l 0,-29.979 c 0,-0.92 0.458,-1.38 1.377,-1.38 0.916,0 1.377,0.46 1.377,1.38 l 0,6.091 c 0.588,-0.98 1.291,-1.915 2.111,-2.801 0.819,-0.883 1.72,-1.668 2.703,-2.358 0.983,-0.686 2.047,-1.242 3.195,-1.67 1.147,-0.426 2.313,-0.642 3.492,-0.642 z"
       id="path39"
       inkscape:connector-curvature="0"
       style="fill:#939598" /><path
       d="m 2039.917,1635.528 c 0.917,0 1.379,0.46 1.379,1.38 0,0.13 -0.283,0.932 -0.839,2.407 -0.556,1.475 -1.245,3.293 -2.063,5.456 -0.818,2.161 -1.72,4.521 -2.703,7.078 -0.983,2.554 -1.916,4.98 -2.802,7.27 -0.884,2.295 -1.654,4.275 -2.308,5.95 -0.656,1.669 -1.081,2.734 -1.278,3.194 -0.197,0.587 -0.69,0.884 -1.476,0.884 -0.722,0 -1.212,-0.297 -1.473,-0.884 -0.197,-0.46 -0.625,-1.525 -1.278,-3.194 -0.657,-1.675 -1.426,-3.655 -2.31,-5.95 -0.888,-2.289 -1.82,-4.716 -2.802,-7.27 -0.983,-2.557 -1.884,-4.917 -2.704,-7.078 -0.82,-2.163 -1.508,-3.98 -2.064,-5.456 -0.556,-1.476 -0.833,-2.277 -0.833,-2.407 0,-0.92 0.454,-1.38 1.374,-1.38 0.523,0 0.949,0.299 1.277,0.888 l 10.812,28.111 10.811,-28.111 c 0.264,-0.589 0.69,-0.888 1.28,-0.888 z"
       id="path41"
       inkscape:connector-curvature="0"
       style="fill:#939598" /><path
       d="m 2055.645,1626.096 c 0,0.59 -0.23,1.098 -0.688,1.522 -0.458,0.429 -0.982,0.637 -1.573,0.637 -0.657,0 -1.194,-0.208 -1.621,-0.637 -0.427,-0.425 -0.638,-0.933 -0.638,-1.522 0,-0.654 0.211,-1.195 0.638,-1.624 0.427,-0.422 0.964,-0.637 1.621,-0.637 0.591,0 1.115,0.215 1.573,0.637 0.457,0.428 0.688,0.969 0.688,1.624 z m -2.262,9.63 c 0.33,0 0.641,0.148 0.935,0.444 0.295,0.292 0.443,0.608 0.443,0.932 l 0,29.883 c 0,0.329 -0.148,0.639 -0.443,0.938 -0.294,0.293 -0.604,0.438 -0.935,0.438 -0.392,0 -0.722,-0.145 -0.982,-0.438 -0.263,-0.299 -0.393,-0.608 -0.393,-0.938 l 0,-29.883 c 0,-0.323 0.13,-0.64 0.393,-0.932 0.26,-0.296 0.59,-0.444 0.982,-0.444 z"
       id="path43"
       inkscape:connector-curvature="0"
       style="fill:#939598" /><path
       d="m 2096.239,1660.696 c 0,0.261 -0.098,0.524 -0.295,0.785 -1.441,2.295 -3.309,4.127 -5.602,5.503 -2.295,1.375 -4.817,2.065 -7.568,2.065 -2.295,0 -4.408,-0.476 -6.339,-1.427 -1.935,-0.947 -3.606,-2.212 -5.015,-3.783 -1.412,-1.573 -2.506,-3.389 -3.295,-5.458 -0.785,-2.062 -1.179,-4.206 -1.179,-6.437 0,-2.225 0.394,-4.374 1.179,-6.436 0.789,-2.069 1.883,-3.885 3.295,-5.457 1.408,-1.574 3.08,-2.835 5.015,-3.786 1.931,-0.948 4.044,-1.424 6.339,-1.424 2.162,0 4.209,0.443 6.143,1.327 1.935,0.887 3.652,2.114 5.162,3.687 0.261,0.325 0.654,0.833 1.182,1.524 0.52,0.687 0.783,1.228 0.783,1.618 0,0.921 -0.461,1.38 -1.376,1.38 -0.396,0 -0.753,-0.164 -1.084,-0.492 -1.114,-1.902 -2.618,-3.427 -4.52,-4.571 -1.9,-1.146 -3.998,-1.722 -6.29,-1.722 -1.902,0 -3.652,0.414 -5.258,1.229 -1.606,0.821 -2.984,1.883 -4.131,3.195 -1.145,1.312 -2.049,2.834 -2.702,4.57 -0.655,1.738 -0.981,3.522 -0.981,5.356 0,1.836 0.326,3.624 0.981,5.356 0.653,1.738 1.558,3.263 2.702,4.57 1.146,1.314 2.524,2.376 4.131,3.197 1.605,0.819 3.355,1.228 5.258,1.228 2.097,0 4.16,-0.555 6.191,-1.672 2.031,-1.112 3.539,-2.587 4.522,-4.42 0.261,-0.594 0.688,-0.887 1.276,-0.887 0.396,0 0.737,0.132 1.031,0.395 0.299,0.266 0.445,0.592 0.445,0.987 z"
       id="path45"
       inkscape:connector-curvature="0"
       style="fill:#939598" /><path
       d="m 2120.32,1634.843 c 2.294,0 4.423,0.476 6.391,1.424 1.965,0.951 3.652,2.212 5.063,3.786 1.407,1.572 2.504,3.388 3.291,5.457 0.787,2.062 1.18,4.211 1.18,6.436 0,0.393 -0.147,0.72 -0.441,0.982 -0.297,0.264 -0.641,0.396 -1.034,0.396 l -27.423,0 c 0.199,1.702 0.637,3.339 1.326,4.916 0.689,1.571 1.588,2.945 2.705,4.127 1.111,1.179 2.421,2.128 3.932,2.852 1.508,0.72 3.177,1.079 5.011,1.079 4.849,0 8.615,-1.933 11.305,-5.799 0.261,-0.458 0.654,-0.688 1.181,-0.688 0.915,0 1.376,0.457 1.376,1.374 0,0.067 -0.067,0.297 -0.2,0.688 -1.372,2.427 -3.309,4.227 -5.799,5.407 -2.49,1.18 -5.109,1.771 -7.862,1.771 -2.295,0 -4.408,-0.476 -6.337,-1.427 -1.936,-0.947 -3.607,-2.212 -5.016,-3.783 -1.41,-1.573 -2.506,-3.389 -3.293,-5.458 -0.788,-2.062 -1.181,-4.206 -1.181,-6.437 0,-2.225 0.393,-4.374 1.181,-6.436 0.787,-2.069 1.883,-3.885 3.293,-5.457 1.408,-1.574 3.08,-2.835 5.016,-3.786 1.927,-0.949 4.04,-1.424 6.335,-1.424 z m 12.974,15.726 c -0.131,-1.702 -0.537,-3.342 -1.227,-4.915 -0.688,-1.572 -1.608,-2.95 -2.753,-4.127 -1.147,-1.18 -2.491,-2.129 -4.028,-2.853 -1.543,-0.722 -3.196,-1.081 -4.966,-1.081 -1.834,0 -3.503,0.359 -5.011,1.081 -1.511,0.724 -2.82,1.673 -3.932,2.853 -1.117,1.177 -2.016,2.555 -2.705,4.127 -0.689,1.573 -1.127,3.213 -1.326,4.915 l 25.948,0 z"
       id="path47"
       inkscape:connector-curvature="0"
       style="fill:#939598" /></g><g
     id="g49"
     transform="translate(-1526.482,-490.852)"><path
       d="m 2132.102,793.763 c 13.544,-20.032 23.406,-44.274 20.72,-64.785 -2.978,-14.736 -13.24,-25.389 -28.11,-23.439 -21.024,2.755 -34.476,27.468 -30.98,54.133 1.546,11.795 6.101,22.672 12.126,32.835 -5.344,6.96 -9.733,13.273 -14.947,21.258 -1.27,2.253 -1.957,4.951 -1.689,7.002 0.404,3.076 1.898,6.532 4.732,8.247 2.32,1.783 5.464,1.892 8.027,1.556 3.077,-0.403 5.953,-2.345 7.667,-5.178 2.539,-4.504 5.591,-9.078 8.71,-13.138 33.429,44.126 43.068,57.989 46.538,80.483 4.554,42.697 -21.625,73.771 -63.161,79.214 -29.741,3.898 -58.783,-14.722 -62.882,-46.002 -2.051,-31.549 13.319,-57.556 41.521,-61.252 13.331,-1.747 27.832,9.391 31.143,26.692 0.808,6.153 6.027,10.163 12.179,9.356 6.155,-0.807 10.166,-6.026 9.359,-12.18 -4.725,-28.068 -29.351,-48.833 -56.016,-45.338 -25.836,3.386 -43.994,17.976 -53.157,39.941 -0.487,0.814 -0.905,1.702 -1.235,2.657 -22.408,71.786 -37.305,101.382 -61.406,104.541 -10.768,1.412 -16.256,-4.65 -18.206,-19.52 -5.174,-39.485 26.018,-111.9 20.035,-157.538 -3.562,-27.178 -17.601,-46.722 -54.519,-41.884 -16.922,2.218 -31.541,14.044 -44.397,31.377 l 2.76,-10.794 c 1.689,-7.001 -4.447,-14.021 -12.137,-13.013 -4.616,0.605 -8.381,3.707 -9.315,8.522 -7.163,32.151 -16.619,76.675 -26.534,123.203 -0.346,0.605 -0.639,1.246 -0.872,1.92 -20.045,69.913 -48.964,103.954 -91.148,108.44 -30.902,3.007 -49.662,-12.79 -52.469,-42.152 -0.897,-10.836 -0.635,-20.78 1.207,-34.582 55.103,-21.306 127.206,-64.138 120.082,-118.493 -3.226,-24.613 -22.92,-35.594 -48.56,-32.233 -60.508,7.931 -99.857,121.581 -94.332,187.619 4.485,42.182 33.821,67.026 76.382,61.446 28.109,-3.684 51.133,-16.848 70.094,-40.613 -1.276,5.862 -2.54,11.644 -3.786,17.317 -1.244,6.422 2.572,11.66 8.481,12.971 5.843,0.8 11.66,-2.572 12.905,-8.993 l 22.159,-104.223 c 0.042,-0.137 0.084,-0.27 0.125,-0.408 0.16,-0.825 0.336,-1.516 0.443,-2.201 10.814,-45.785 40.589,-119.492 71.732,-123.573 20,-2.621 28.212,8.299 30.16,23.169 5.848,44.612 -26.355,109.337 -20.037,157.538 3.294,25.126 17.955,41.462 42.568,38.235 25.029,-3.281 42.467,-21.426 59.459,-61.734 13.721,29.518 46.268,47.877 81.033,43.32 51.793,-6.788 88.175,-47.548 81.943,-103.062 -5.08,-34.801 -21.277,-50.933 -54.395,-96.664 z M 2115.2,756.337 c -0.941,-7.18 -0.613,-16.611 4.734,-23.57 4.455,-5.801 9.895,-8.079 10.835,-0.9 1.479,11.281 -4.127,28.187 -10.854,40.543 -2.279,-5.439 -3.977,-10.432 -4.715,-16.073 z m -365.21,58.821 c 11.28,-1.479 22.384,-0.326 24.198,13.519 4.974,37.946 -52.752,71.069 -93.566,89.981 11.234,-41.635 33.985,-98.862 69.368,-103.5 z"
       id="path51"
       inkscape:connector-curvature="0"
       style="fill:#ffffff" /></g></svg>